HIERARCHY
ROOT Hips
{
	OFFSET -0.001795 -0.223333 0.028219
	CHANNELS 6 Xposition Yposition Zposition Zrotation Yrotation Xrotation 
	JOINT LeftUpLeg
	{
		OFFSET 0.069520 -0.091406 -0.006815
		CHANNELS 3 Zrotation Yrotation Xrotation
		JOINT LeftLeg
		{
			OFFSET 0.034277 -0.375199 -0.004496
			CHANNELS 3 Zrotation Yrotation Xrotation
			JOINT LeftFoot
			{
				OFFSET -0.013596 -0.397961 -0.043693
				CHANNELS 3 Zrotation Yrotation Xrotation
				JOINT LeftToe
				{
					OFFSET 0.026358 -0.055791 0.119288
					CHANNELS 3 Zrotation Yrotation Xrotation
					End Site
					{
						OFFSET 0.000000 0.000000 0.000000
					}
				}
			}
		}
	}
	JOINT RightUpLeg
	{
		OFFSET -0.067670 -0.090522 -0.004320
		CHANNELS 3 Zrotation Yrotation Xrotation
		JOINT RightLeg
		{
			OFFSET -0.038290 -0.382569 -0.008850
			CHANNELS 3 Zrotation Yrotation Xrotation
			JOINT RightFoot
			{
				OFFSET 0.015774 -0.398415 -0.042312
				CHANNELS 3 Zrotation Yrotation Xrotation
				JOINT RightToe
				{
					OFFSET -0.025372 -0.048144 0.123348
					CHANNELS 3 Zrotation Yrotation Xrotation
					End Site
					{
						OFFSET 0.000000 0.000000 0.000000
					}
				}
			}
		}
	}
	JOINT Spine
	{
		OFFSET -0.002533 0.108963 -0.026696
		CHANNELS 3 Zrotation Yrotation Xrotation
		JOINT Spine1
		{
			OFFSET 0.005487 0.135180 0.001092
			CHANNELS 3 Zrotation Yrotation Xrotation
			JOINT Spine2
			{
				OFFSET 0.001457 0.052922 0.025425
				CHANNELS 3 Zrotation Yrotation Xrotation
				JOINT Neck
				{
					OFFSET -0.002778 0.213870 -0.042857
					CHANNELS 3 Zrotation Yrotation Xrotation
					JOINT Head
					{
						OFFSET 0.005152 0.064970 0.051349
						CHANNELS 3 Zrotation Yrotation Xrotation
						End Site
						{
							OFFSET 0.000000 0.000000 0.000000
						}
					}
				}
				JOINT LeftShoulder
				{
					OFFSET 0.078845 0.121749 -0.034090
					CHANNELS 3 Zrotation Yrotation Xrotation
					JOINT LeftArm
					{
						OFFSET 0.090977 0.030469 -0.008868
						CHANNELS 3 Zrotation Yrotation Xrotation
						JOINT LeftForeArm
						{
							OFFSET 0.259612 -0.012772 -0.027456
							CHANNELS 3 Zrotation Yrotation Xrotation
							JOINT LeftHand
							{
								OFFSET 0.249234 0.008986 -0.001171
								CHANNELS 3 Zrotation Yrotation Xrotation
								End Site
								{
									OFFSET 0.000000 0.000000 0.000000
								}
							}
						}
					}
				}
				JOINT RightShoulder
				{
					OFFSET -0.081759 0.118833 -0.038615
					CHANNELS 3 Zrotation Yrotation Xrotation
					JOINT RightArm
					{
						OFFSET -0.096012 0.032551 -0.009143
						CHANNELS 3 Zrotation Yrotation Xrotation
						JOINT RightForeArm
						{
							OFFSET -0.253742 -0.013329 -0.021401
							CHANNELS 3 Zrotation Yrotation Xrotation
							JOINT RightHand
							{
								OFFSET -0.255298 0.007772 -0.005559
								CHANNELS 3 Zrotation Yrotation Xrotation
								End Site
								{
									OFFSET 0.000000 0.000000 0.000000
								}
							}
						}
					}
				}
			}
		}
	}
}
MOTION
Frames: 7
Frame Time: 0.050000
-0.383016 0.917647 0.187596 -156.594969 -84.096119 158.742502 -4.480650 2.260047 9.703466 4.776518 -0.190025 1.626106 -9.728819 1.244201 -15.137736 0.000000 0.000000 0.000000 -8.507374 4.726879 -22.126844 4.546932 2.026650 10.197985 -10.255822 -8.157314 0.830661 0.000000 0.000000 0.000000 1.856151 -0.152976 5.915464 0.287434 3.875371 4.232568 3.131076 -14.589542 3.565406 0.761791 -4.071621 -28.685633 0.000000 0.000000 0.000000 -35.912124 -2.711879 29.730260 -31.460966 -22.293853 -5.431427 76.221346 -69.150928 -47.137611 0.000000 0.000000 0.000000 20.789004 20.241885 -16.541246 27.468516 -33.475444 -5.525934 55.113054 41.800418 13.709212 0.000000 0.000000 0.000000 
-0.429279 0.909132 0.163537 -148.100913 -85.571316 150.334078 -2.563422 3.189013 12.095302 4.856041 -0.054724 3.071078 -9.704910 2.728808 -18.254965 0.000000 0.000000 0.000000 -9.410913 4.795263 -22.130394 2.579605 1.191357 3.778625 -5.859400 -4.441511 2.582558 0.000000 0.000000 0.000000 2.983323 -0.239912 5.311450 0.353264 3.880504 4.551137 2.981091 -14.818738 2.871616 1.166415 -4.068505 -29.126582 0.000000 0.000000 0.000000 -36.912971 -2.927531 30.070568 -31.331713 -21.196193 -5.780557 85.230813 -71.427662 -57.096454 0.000000 0.000000 0.000000 21.681227 20.837108 -16.294594 27.160090 -34.676369 -5.701424 54.440654 42.985962 14.690840 0.000000 0.000000 0.000000 
-0.477188 0.901913 0.136161 -110.723783 -87.094747 112.611516 0.550287 3.904587 13.651315 6.894555 -0.011564 6.640804 -10.256891 -1.379271 -16.692360 0.000000 0.000000 0.000000 -8.243517 4.111603 -20.553925 3.910478 1.442075 6.872393 -5.340184 -4.603599 2.448301 0.000000 0.000000 0.000000 4.625255 -0.285834 5.001952 0.400958 4.034270 5.320298 2.777026 -15.439705 2.038787 1.775154 -4.052812 -27.867129 0.000000 0.000000 0.000000 -37.020910 -3.867162 30.088484 -32.278432 -20.601547 -5.814250 86.457898 -71.831135 -58.376250 0.000000 0.000000 0.000000 23.794719 21.404051 -16.934698 25.066018 -34.975247 -4.648339 54.543238 42.276940 15.354938 0.000000 0.000000 0.000000 
-0.523178 0.899974 0.107455 -94.830341 -85.936546 96.688528 2.360569 3.499818 11.974582 9.506959 1.216793 13.732717 -8.554306 -0.286533 -14.054153 0.000000 0.000000 0.000000 -5.894496 3.679019 -20.097965 5.322759 1.982812 10.515402 -5.807467 -4.299175 0.948559 0.000000 0.000000 0.000000 7.279081 -0.179717 4.056162 -0.497776 4.637715 5.896905 2.872594 -13.987703 3.211251 1.428351 -3.947147 -28.126732 0.000000 0.000000 0.000000 -36.667146 -4.489372 29.200770 -34.831807 -20.041759 -5.765268 90.636453 -73.100116 -62.492351 0.000000 0.000000 0.000000 25.318999 21.939217 -16.710081 25.370626 -34.819999 -4.588193 54.104922 43.680149 16.632672 0.000000 0.000000 0.000000 
-0.566212 0.905970 0.080824 -95.197523 -83.643247 97.670046 4.985134 2.744832 6.670616 12.593147 5.903978 26.745760 -5.020156 -0.091301 -6.350564 0.000000 0.000000 0.000000 -1.773233 2.882811 -18.482099 5.706689 2.214590 11.411422 -6.374413 -4.593279 0.211224 0.000000 0.000000 0.000000 10.430108 0.182559 3.000872 -0.292312 4.399736 5.447456 2.221553 -11.213285 4.326283 2.069754 -4.171785 -28.473146 0.000000 0.000000 0.000000 -36.350121 -4.761687 28.103070 -37.581260 -18.452927 -6.113913 93.506900 -74.825321 -65.853986 0.000000 0.000000 0.000000 23.195214 21.646658 -13.970174 28.894061 -30.276753 -5.169710 51.488018 45.337979 15.669314 0.000000 0.000000 0.000000 
-0.607539 0.911696 0.057448 -97.491862 -83.268395 100.064801 4.262770 1.861876 -0.046936 19.632250 10.918636 40.464357 -4.289277 -4.373069 1.596733 0.000000 0.000000 0.000000 -0.212406 1.739801 -14.507074 7.257268 2.230601 8.937154 -6.685659 -4.138504 -0.273153 0.000000 0.000000 0.000000 11.622341 0.375593 2.815414 -1.587343 5.124824 5.763020 4.715819 -9.624657 4.718659 -0.391282 -3.263999 -29.395341 0.000000 0.000000 0.000000 -37.937528 -5.787123 29.456060 -36.771890 -18.884236 -6.249581 84.712024 -72.909081 -57.489484 0.000000 0.000000 0.000000 19.717710 21.387399 -11.018915 31.304974 -26.197255 -5.403652 55.123026 47.717365 16.755464 0.000000 0.000000 0.000000 
-0.649238 0.917044 0.036861 -96.885457 -83.498041 98.967768 2.183997 1.471905 -7.795068 26.306263 13.370597 51.010566 -8.496979 -12.180133 -2.400936 0.000000 0.000000 0.000000 1.127516 0.613089 -8.665812 6.928570 2.000251 5.295517 -7.111427 -2.366887 -2.196807 0.000000 0.000000 0.000000 12.526295 0.450897 3.607663 -1.663274 4.332955 4.046773 3.021133 -7.172567 6.852264 0.180860 -3.654926 -29.502500 0.000000 0.000000 0.000000 -37.638826 -5.044975 28.357311 -37.278060 -17.292012 -6.831348 78.203739 -75.942547 -53.909809 0.000000 0.000000 0.000000 20.532991 22.446300 -10.995199 31.631831 -24.174052 -4.610782 58.346708 50.555009 19.512021 0.000000 0.000000 0.000000 
